<svg xmlns="http://www.w3.org/2000/svg" width="155" height="155" viewBox="0 0 155 155">
  <metadata><?xpacket begin="﻿" id="W5M0MpCehiHzreSzNTczkc9d"?>
<x:xmpmeta xmlns:x="adobe:ns:meta/" x:xmptk="Adobe XMP Core 5.6-c138 79.159824, 2016/09/14-01:09:01        ">
   <rdf:RDF xmlns:rdf="http://www.w3.org/1999/02/22-rdf-syntax-ns#">
      <rdf:Description rdf:about=""/>
   </rdf:RDF>
</x:xmpmeta>
                                                                                                    
                                                                                                    
                                                                                                    
                                                                                                    
                                                                                                    
                                                                                                    
                                                                                                    
                                                                                                    
                                                                                                    
                                                                                                    
                                                                                                    
                                                                                                    
                                                                                                    
                                                                                                    
                                                                                                    
                                                                                                    
                                                                                                    
                                                                                                    
                                                                                                    
                                                                                                    
                           
<?xpacket end="w"?></metadata>
<defs>
    <style>
      .cls-1 {
        fill: #333;
        fill-rule: evenodd;
      }
    </style>
  </defs>
  <path id="Многоугольник_1" data-name="Многоугольник 1" class="cls-1" d="M111.956,142.81q-3.7,11.29-14.2,5.827-5.952,10.271-15.094,2.731-7.946,8.8-15.329-.482-9.593,6.951-14.895-3.675Q41.618,152,38.631,140.5q-11.576,2.426-12.12-9.447-11.825-.046-9.9-11.774Q5.053,116.767,9.361,105.7q-10.785-4.876-4.281-14.8Q-4.46,83.872,3.955,75.52q-7.879-8.863,2.079-15.273Q0.161,49.93,11.228,45.742q-3.611-11.319,8.08-13.1Q18.117,20.813,29.922,21.511,31.2,9.694,42.606,12.844q3.7-11.29,14.2-5.826Q62.756-3.254,71.9,4.286q7.946-8.8,15.329.482,9.594-6.95,14.894,3.675,10.823-4.794,13.809,6.708,11.577-2.428,12.12,9.447,11.825,0.045,9.9,11.773,11.559,2.516,7.25,13.585,10.783,4.876,4.28,14.8,9.542,7.024,1.125,15.374,7.88,8.863-2.079,15.273,5.874,10.316-5.193,14.506,3.611,11.318-8.08,13.1,1.191,11.828-10.614,11.129Q123.359,145.96,111.956,142.81Z"/>
</svg>
